<?xml version="1.0" encoding="utf-8"?>
<!-- Generator: Adobe Illustrator 26.0.2, SVG Export Plug-In . SVG Version: 6.00 Build 0)  -->
<svg version="1.1" id="Capa_1" xmlns="http://www.w3.org/2000/svg" xmlns:xlink="http://www.w3.org/1999/xlink" x="0px" y="0px"
	 viewBox="0 0 156 50" style="enable-background:new 0 0 156 50;" xml:space="preserve">
<style type="text/css">
	.st0{fill:#636569;}
	.st1{fill:#EF2700;}
</style>
<g>
	<g>
		<g>
			<g>
				<g>
					<path class="st0" d="M58.5,41.9c0,1.8-1.5,3.3-3.3,3.3c-1.1,0-1.9-0.5-2.4-1.2V45h-1.1v-8.6h1.1v3.5c0.5-0.8,1.3-1.2,2.4-1.2
						C57,38.6,58.5,40,58.5,41.9 M57.3,41.9c0-1.3-1-2.2-2.3-2.2c-1.3,0-2.3,1-2.3,2.2c0,1.3,1,2.2,2.3,2.2
						C56.4,44.1,57.3,43.1,57.3,41.9 M64.9,38.7l-2.6,6.6c-0.5,1.4-1.5,2.2-2.9,2.1v-1c0.9,0.1,1.4-0.4,1.7-1.3l0.1-0.2l-2.8-6.2
						h1.2l2.2,4.9l1.9-4.9H64.9z M91.3,41.7l-2.2-3h1.9l1.3,1.8l1.3-1.8h1.8l-2.2,3.1l2.3,3.1h-1.9l-1.5-2l-1.4,2H89L91.3,41.7z
						 M100.5,43.1c0.2,0.5,0.6,0.8,1.2,0.8c0.5,0,0.8-0.2,0.8-0.5c0-0.4-0.2-0.5-1.1-0.9c-1.1-0.4-1.9-1-1.9-2c0-1,0.8-1.8,2.2-1.8
						c1.4,0,2.2,0.6,2.4,1.5l-1.3,0.5c-0.1-0.5-0.5-0.7-1-0.7c-0.4,0-0.7,0.2-0.7,0.5c0,0.3,0.3,0.5,1.1,0.8c1.1,0.5,1.9,1,1.9,2.1
						c0,0.9-0.7,1.9-2.4,1.9c-1.2,0-2.2-0.6-2.5-1.5L100.5,43.1z M78.5,45h1.7v-6.2h-1.7V45z M78.5,37.7h1.7v-1.6h-1.7V37.7z
						 M96.6,45h1.7v-6.2h-1.7V45z M96.6,37.7h1.7v-1.6h-1.7V37.7z M75.4,36.1h1.7V45h-1.7V36.1z M72.3,38.7v0.6
						c-0.3-0.4-1.1-0.8-2-0.8c-1.6,0-3.1,1.3-3.2,3.1c0,0.1,0,0.1,0,0.2c0,0.1,0,0.1,0,0.2c0.1,1.8,1.7,3.1,3.2,3.1
						c0.9,0,1.7-0.4,2-0.8V45H74v-6.2H72.3z M70.5,43.7c-1,0-1.8-0.8-1.8-1.8c0-1,0.8-1.8,1.8-1.8c1,0,1.8,0.8,1.8,1.8
						C72.3,42.9,71.5,43.7,70.5,43.7 M86.5,38.7v0.6c-0.3-0.4-1.1-0.8-2-0.8c-1.6,0-3.2,1.3-3.2,3.1c0,0.1,0,0.1,0,0.2
						c0,0.1,0,0.1,0,0.2c0.1,1.8,1.7,3.1,3.2,3.1c0.9,0,1.7-0.4,2-0.8V45h1.7v-6.2H86.5z M84.6,43.7c-1,0-1.8-0.8-1.8-1.8
						c0-1,0.8-1.8,1.8-1.8c1,0,1.8,0.8,1.8,1.8C86.5,42.9,85.6,43.7,84.6,43.7"/>
				</g>
			</g>
		</g>
		<g>
			<path class="st1" d="M5.7,27.4c0.1-0.1,0.1-0.1,0.2-0.2c0.3-0.7,0.5-1.4,0.8-2.1c0.3-0.8,0.6-1.6,0.9-2.4
				c0.2-0.6,0.5-1.3,0.8-1.9c0.2-0.5,0.4-1,0.6-1.5c0.2-0.5,0.4-1,0.6-1.5c0.2-0.5,0.4-1,0.5-1.4c0.3-0.7,0.5-1.3,0.8-2
				c0.3-0.7,0.5-1.3,0.8-2c0.3-0.7,0.5-1.3,0.8-2c0.2-0.5,0.4-1,0.6-1.5c0.2-0.7,0.5-1.3,0.8-2c0.2-0.5,0.4-1,0.6-1.5
				c0.2-0.5,0.4-1,0.6-1.5c0.1-0.4,0.3-0.8,0.4-1.2c0.1-0.2,0.2-0.3,0.4-0.3c3.6,0,7.2,0,10.8,0c0.7,0,1.3,0,2,0
				c0.6,0,1.3,0.1,1.9,0.3c0.5,0.1,1,0.2,1.5,0.4c0.9,0.3,1.6,0.8,2,1.7c0.4,0.9,0.4,1.9,0.2,2.9c-0.2,1-0.6,2-1,2.9
				c-0.3,0.7-0.5,1.3-0.7,2c-0.3,0.8-0.6,1.5-0.9,2.3c-0.3,0.8-0.6,1.6-0.9,2.4c-0.2,0.7-0.5,1.3-0.8,1.9c-0.2,0.5-0.4,1-0.6,1.5
				c-0.6,1.6-1.5,3-2.9,4c-0.8,0.6-1.6,1.1-2.5,1.5c-0.8,0.3-1.5,0.6-2.3,0.7c-0.8,0.2-1.7,0.3-2.5,0.4c-0.2,0-0.4,0-0.5,0
				c-3.1,0-6.3,0-9.4,0C7.9,27.5,6.8,27.5,5.7,27.4C5.7,27.4,5.7,27.4,5.7,27.4z M16.5,23.3c0.9,0,1.7,0,2.6-0.4
				c0.8-0.3,1.4-0.7,1.7-1.5c0.2-0.5,0.4-0.9,0.6-1.4c0.3-0.6,0.5-1.3,0.7-2c0.2-0.5,0.4-1,0.6-1.5c0.2-0.5,0.4-1,0.6-1.5
				c0.2-0.6,0.5-1.3,0.7-1.9c0.3-0.8,0.6-1.6,0.9-2.3c0.3-0.7,0.6-1.4,0.8-2.1c0.2-0.7,0.2-1.2-0.5-1.6c-0.3-0.2-0.7-0.3-1-0.4
				c-0.7-0.1-1.5-0.1-2.2-0.1c-0.2,0-0.3,0.1-0.3,0.2c-0.1,0.3-0.3,0.6-0.4,1c-0.3,0.7-0.5,1.3-0.7,2c-0.2,0.5-0.4,1-0.6,1.5
				c-0.2,0.5-0.4,1-0.6,1.5c-0.2,0.5-0.4,1-0.6,1.5c-0.2,0.6-0.5,1.3-0.7,1.9c-0.3,0.7-0.5,1.3-0.7,2c-0.2,0.6-0.5,1.3-0.8,1.9
				c-0.4,1-0.7,1.9-1.1,2.9c-0.1,0.2,0,0.3,0.2,0.3C16,23.3,16.3,23.3,16.5,23.3z"/>
			<path class="st1" d="M82.3,7.6c-0.3,0.8-0.6,1.5-0.9,2.3c0,0,0,0,0.1,0.1c0.1,0,0.2,0,0.2-0.1c0.7-0.6,1.5-1.1,2.4-1.6
				c0.9-0.5,1.9-0.8,2.9-0.9c0.5,0,1-0.1,1.5-0.1c0.9,0,1.8,0.1,2.7,0.5c0.9,0.4,1.5,1,1.5,2c0,0.1,0,0.1,0.1,0.2
				c0.1,0,0.2,0,0.2-0.1c0.4-0.3,0.8-0.6,1.2-0.9c0.9-0.7,1.9-1.2,3.1-1.4c0.4-0.1,0.9-0.1,1.3-0.2c0.3,0,0.5-0.1,0.8-0.1
				c0.7,0,1.4,0,2.1,0.1c0.9,0.1,1.6,0.5,2.2,1.2c0.4,0.6,0.5,1.3,0.4,2c-0.2,0.9-0.5,1.7-0.9,2.5c-0.2,0.6-0.5,1.3-0.7,1.9
				c-0.2,0.6-0.5,1.3-0.8,1.9c-0.2,0.5-0.4,1-0.6,1.5c-0.2,0.5-0.4,1-0.6,1.5c-0.2,0.5-0.4,1-0.6,1.4c-0.2,0.5-0.4,1.1-0.6,1.6
				c-0.2,0.6-0.5,1.3-0.7,1.9c-0.2,0.6-0.5,1.3-0.7,1.9c-0.1,0.2-0.2,0.4-0.2,0.6c0,0.2-0.1,0.2-0.3,0.2c-0.1,0-0.3,0-0.4,0
				c-2.2,0-4.3,0-6.5,0c-0.4,0-0.4-0.1-0.3-0.4c0.2-0.5,0.4-1,0.6-1.4c0.2-0.5,0.4-1,0.6-1.5c0.3-0.7,0.5-1.3,0.8-2
				c0.3-0.7,0.5-1.3,0.8-2c0.2-0.6,0.5-1.3,0.7-1.9c0.2-0.5,0.4-1,0.6-1.5c0.2-0.5,0.4-1,0.6-1.5c0.2-0.5,0.4-1.1,0.6-1.6
				c0.1-0.3,0.2-0.7,0.2-1c0-0.5-0.4-0.8-1-0.9c-1.1-0.1-2,0.4-2.6,1.3c-0.4,0.6-0.6,1.3-0.9,2c-0.2,0.5-0.4,1-0.6,1.5
				c-0.2,0.5-0.4,1-0.6,1.5c-0.2,0.5-0.4,1-0.6,1.5c-0.2,0.5-0.4,1-0.6,1.5c-0.2,0.7-0.5,1.3-0.7,2c-0.3,0.7-0.5,1.3-0.8,2
				c-0.2,0.5-0.4,1-0.6,1.5c-0.1,0.2-0.2,0.5-0.2,0.7c-0.1,0.2-0.2,0.4-0.5,0.4c-2.2,0-4.5,0-6.7,0c-0.4,0-0.4-0.1-0.3-0.4
				c0.2-0.5,0.4-1.1,0.6-1.6c0.2-0.6,0.5-1.3,0.8-1.9c0.2-0.5,0.4-1,0.5-1.4c0.2-0.5,0.4-1.1,0.6-1.6c0.2-0.5,0.4-1,0.5-1.4
				c0.2-0.5,0.4-1,0.6-1.6c0.2-0.6,0.5-1.2,0.7-1.9c0.2-0.5,0.4-1,0.6-1.5c0.2-0.5,0.3-1,0.3-1.6c0-0.3-0.3-0.6-0.7-0.6
				c-1.4-0.2-2.3,0.2-3,1.5c-0.4,0.7-0.6,1.4-0.9,2.1c-0.3,0.6-0.5,1.3-0.7,1.9c-0.3,0.7-0.5,1.3-0.7,2c-0.2,0.6-0.5,1.3-0.7,1.9
				c-0.2,0.5-0.4,1-0.6,1.5c-0.2,0.5-0.4,1-0.6,1.5c-0.2,0.6-0.5,1.3-0.7,1.9c-0.2,0.4-0.3,0.8-0.5,1.2c-0.1,0.2-0.2,0.2-0.3,0.2
				c-1.7,0-3.5,0-5.2,0c-0.6,0-1.1,0-1.7,0c-0.3,0-0.3,0-0.2-0.3c0.2-0.6,0.5-1.2,0.7-1.9c0.3-0.7,0.5-1.3,0.8-2
				c0.2-0.6,0.5-1.3,0.7-1.9c0.3-0.7,0.5-1.3,0.8-2c0.2-0.6,0.5-1.3,0.7-1.9c0.3-0.7,0.5-1.3,0.8-2c0.2-0.5,0.4-1,0.6-1.6
				c0.2-0.5,0.4-1,0.6-1.5c0.2-0.5,0.4-1,0.6-1.5c0.3-0.7,0.5-1.4,0.8-2c0.2-0.5,0.4-1,0.5-1.5c0.1-0.1,0.1-0.2,0.3-0.2
				c0.1,0,0.2,0,0.3,0c2.1,0,4.3,0,6.4,0C82.1,7.5,82.2,7.6,82.3,7.6z"/>
			<path class="st1" d="M46,27.7c-0.6,0-1.2,0-1.8,0c-0.8,0-1.6,0-2.4-0.1c-0.2,0-0.2,0-0.2-0.2c0.2-0.6,0.4-1.1,0.6-1.7
				c0,0,0-0.1,0-0.2c-0.1,0-0.2,0-0.2,0c-0.3,0.2-0.5,0.4-0.8,0.6c-0.8,0.6-1.7,1.1-2.7,1.4c-0.5,0.1-1.1,0.3-1.6,0.3
				C36.2,28,35.5,28,34.8,28c-0.8,0-1.6-0.2-2.2-0.6c-0.7-0.5-1.1-1.1-1.1-1.9c0-0.8,0.2-1.5,0.5-2.2c0.3-0.6,0.5-1.3,0.7-1.9
				c0.3-0.7,0.5-1.3,0.8-2c0.2-0.6,0.5-1.3,0.7-1.9c0.2-0.5,0.4-1,0.6-1.5c0.2-0.6,0.5-1.2,0.7-1.9c0.2-0.5,0.4-1,0.6-1.6
				c0.2-0.5,0.4-1,0.6-1.4c0.2-0.5,0.4-1,0.6-1.6c0.2-0.5,0.4-1,0.6-1.5c0.1-0.1,0.1-0.3,0.2-0.4c0-0.1,0.2-0.1,0.3-0.1
				c1.8,0,3.7,0,5.5,0c0.5,0,1,0,1.5,0c0.3,0,0.3,0,0.2,0.3c-0.2,0.5-0.4,1-0.6,1.5c-0.2,0.5-0.4,1-0.6,1.4c-0.2,0.5-0.4,1-0.6,1.5
				c-0.2,0.5-0.4,1-0.6,1.5c-0.2,0.5-0.4,1-0.6,1.5c-0.2,0.5-0.4,1-0.6,1.6c-0.2,0.5-0.4,1-0.6,1.5c-0.2,0.5-0.4,1-0.6,1.5
				c-0.2,0.4-0.3,0.8-0.4,1.2c-0.1,0.4-0.3,0.8-0.3,1.2c-0.1,0.8,0.1,1,0.8,1.1c1.3,0.2,2.3-0.5,2.7-1.6c0.3-0.8,0.6-1.6,0.9-2.3
				c0.4-1.1,0.8-2.2,1.2-3.3c0.2-0.6,0.5-1.3,0.8-1.9c0.3-0.8,0.6-1.6,0.9-2.4c0.2-0.6,0.5-1.3,0.8-1.9c0.2-0.5,0.4-1,0.6-1.6
				c0.1-0.2,0.1-0.3,0.2-0.5c0.1-0.2,0.2-0.2,0.4-0.2c1.2,0,2.3,0,3.5,0c1.1,0,2.3,0,3.4,0c0.3,0,0.4,0,0.2,0.3
				c-0.2,0.5-0.4,1-0.6,1.5c-0.2,0.5-0.4,1-0.6,1.5c-0.2,0.5-0.4,1-0.6,1.5c-0.2,0.5-0.4,1-0.6,1.5c-0.2,0.6-0.5,1.3-0.7,1.9
				c-0.3,0.7-0.5,1.3-0.8,2c-0.3,0.7-0.5,1.3-0.8,2c-0.2,0.5-0.4,1-0.6,1.5c-0.2,0.6-0.5,1.3-0.7,1.9c-0.2,0.5-0.4,1-0.6,1.5
				c-0.2,0.5-0.4,1-0.6,1.5c-0.1,0.4-0.3,0.7-0.4,1.1c-0.1,0.3-0.2,0.4-0.5,0.4C47.6,27.7,46.8,27.7,46,27.7z"/>
			<path class="st1" d="M138,7.6c-0.3,0.7-0.5,1.3-0.8,2c0,0.1,0,0.2,0,0.3c0.1,0,0.2,0,0.2-0.1c0.8-0.6,1.6-1.2,2.5-1.6
				c0.5-0.2,1.1-0.4,1.7-0.5c0.6-0.1,1.2-0.1,1.8-0.2c0.7-0.1,1.3,0,1.9,0.1c0.9,0.1,1.8,0.5,2.3,1.3c0.3,0.6,0.5,1.2,0.3,1.8
				c-0.1,0.7-0.4,1.4-0.7,2.1c-0.3,0.7-0.5,1.3-0.7,2c-0.3,0.8-0.6,1.6-0.9,2.3c-0.2,0.5-0.4,1-0.6,1.5c-0.2,0.5-0.4,1-0.6,1.4
				c-0.3,0.7-0.5,1.3-0.8,2c-0.2,0.5-0.4,1-0.6,1.5c-0.2,0.5-0.4,1-0.6,1.5c-0.1,0.3-0.2,0.6-0.4,0.9c-0.2,0.5-0.4,1-0.6,1.6
				c0,0.1-0.2,0.2-0.3,0.2c-0.1,0-0.2,0-0.3,0c-2.2,0-4.4,0-6.6,0c-0.1,0-0.1,0-0.2,0c-0.2,0-0.2-0.1-0.2-0.3c0.3-0.8,0.6-1.7,1-2.5
				c0.3-0.8,0.6-1.6,0.9-2.4c0.3-0.8,0.6-1.6,0.9-2.4c0.3-0.8,0.6-1.5,0.9-2.3c0.3-0.7,0.5-1.3,0.7-2c0.2-0.5,0.4-1,0.6-1.5
				c0.2-0.5,0.3-1,0.4-1.5c0.1-0.4-0.2-0.6-0.6-0.7c-0.8-0.2-1.6-0.1-2.3,0.5c-0.4,0.3-0.6,0.7-0.8,1.2c-0.4,1-0.8,2.1-1.2,3.1
				c-0.3,0.8-0.6,1.6-0.9,2.4c-0.3,0.8-0.6,1.6-0.9,2.4c-0.3,0.8-0.6,1.5-0.9,2.3c-0.3,0.7-0.5,1.3-0.7,2c-0.2,0.5-0.4,1-0.6,1.5
				c-0.1,0.1-0.2,0.2-0.3,0.2c-2.3,0-4.7,0-7,0c-0.3,0-0.3,0-0.2-0.3c0.2-0.6,0.5-1.3,0.7-1.9c0.2-0.5,0.4-1,0.6-1.5
				c0.2-0.5,0.4-1,0.6-1.5c0.2-0.5,0.4-1.1,0.6-1.6c0.2-0.5,0.4-1,0.6-1.5c0.2-0.5,0.4-0.9,0.5-1.4c0.2-0.5,0.4-1,0.6-1.5
				c0.3-0.7,0.5-1.3,0.8-2c0.2-0.5,0.4-1,0.6-1.5c0.1-0.4,0.3-0.7,0.4-1.1c0.2-0.5,0.4-1,0.6-1.5c0.2-0.6,0.5-1.3,0.7-1.9
				c0.1-0.2,0.2-0.4,0.2-0.7c0-0.2,0.1-0.3,0.3-0.3c0.3,0,0.7,0,1,0c1.9,0,3.8,0,5.7,0C137.8,7.5,137.9,7.5,138,7.6z"/>
			<path class="st1" d="M113,26.4c-0.1,0.1-0.2,0.1-0.3,0.1c-0.7,0.5-1.5,0.8-2.4,1.1c-0.6,0.2-1.2,0.3-1.8,0.3
				c-0.9,0-1.7,0.1-2.6,0.1c-0.8,0-1.7-0.1-2.4-0.6c-0.9-0.5-1.3-1.3-1.3-2.3c0.1-1.3,0.5-2.5,1.1-3.7c0.7-1.5,1.9-2.7,3.5-3.5
				c0.9-0.5,1.9-0.9,2.9-1.2c0.7-0.2,1.3-0.4,2-0.6c0.9-0.2,1.8-0.5,2.7-0.7c0.9-0.3,1.7-0.6,2.5-1.2c0.7-0.6,1.2-1.3,1.3-2.2
				c0-0.4-0.2-0.8-0.7-0.8c-0.9-0.1-1.7-0.1-2.5,0.4c-0.4,0.3-0.6,0.6-0.8,1c-0.2,0.4-0.3,0.9-0.5,1.3c0,0.1-0.2,0.2-0.3,0.2
				c-0.4,0-0.9,0-1.3,0c-0.1,0-0.3,0-0.4,0c-1.5,0-3.1,0-4.6,0c-0.4,0-0.4,0-0.3-0.4c0.4-0.9,0.6-1.9,1.3-2.7
				c0.6-0.7,1.4-1.3,2.2-1.8c0.8-0.5,1.7-0.8,2.5-1.1c0.5-0.2,1-0.3,1.6-0.4c0.9-0.2,1.7-0.3,2.6-0.4c0.6-0.1,1.2,0,1.8,0
				c0.5,0,1,0.1,1.5,0.1c0.8,0.1,1.6,0.2,2.3,0.4c0.5,0.2,1.1,0.4,1.6,0.6c0.8,0.4,1.2,1.1,1.3,1.9c0.1,0.7,0,1.4-0.2,2.1
				c-0.3,0.9-0.6,1.8-0.9,2.6c-0.3,0.8-0.6,1.5-0.9,2.3c-0.3,0.7-0.5,1.3-0.7,2c-0.2,0.6-0.5,1.3-0.8,1.9c-0.2,0.6-0.5,1.3-0.7,1.9
				c-0.2,0.6-0.5,1.3-0.8,1.9c-0.2,0.6-0.5,1.3-0.7,1.9c-0.1,0.2-0.2,0.4-0.5,0.4c-2,0-4.1,0-6.1,0c-0.1,0-0.1,0-0.2,0
				c-0.2,0-0.3-0.1-0.2-0.2c0.1-0.3,0.2-0.5,0.3-0.8C113,26.6,113,26.5,113,26.4z M111.3,25c0.8,0,1.4-0.3,1.9-0.8
				c0.3-0.3,0.6-0.7,0.7-1.2c0.2-0.7,0.5-1.3,0.8-2c0.2-0.5,0.4-1,0.6-1.5c0.2-0.5,0.4-0.9,0.5-1.4c0-0.1,0-0.2,0-0.2
				c0,0-0.2,0-0.2,0c-0.2,0.1-0.4,0.2-0.6,0.3c-0.7,0.3-1.4,0.6-2.1,0.9c-0.6,0.3-1.1,0.7-1.4,1.4c-0.2,0.4-0.3,0.8-0.5,1.3
				c-0.2,0.6-0.5,1.3-0.7,1.9c-0.2,0.5,0,0.9,0.4,1.1C110.9,24.9,111.2,25,111.3,25z"/>
			<path class="st1" d="M52.3,27.6c0.1-0.4,0.3-0.7,0.4-1c0.2-0.5,0.4-1,0.6-1.5c0.2-0.5,0.4-1,0.6-1.5c0.2-0.5,0.4-1,0.6-1.5
				c0.2-0.5,0.4-1.1,0.6-1.6c0.2-0.5,0.4-1,0.6-1.5c0.2-0.5,0.4-0.9,0.5-1.4c0.2-0.5,0.4-1,0.6-1.5c0.3-0.7,0.5-1.3,0.8-2
				c0.2-0.5,0.4-1,0.6-1.6c0.2-0.5,0.4-1,0.6-1.5c0.2-0.5,0.4-1,0.6-1.5c0.2-0.6,0.5-1.2,0.7-1.8c0-0.1,0.2-0.2,0.3-0.2
				c0.8,0,1.6,0,2.4,0c1.4,0,2.8,0,4.2,0c0.3,0,0.3,0,0.2,0.3c-0.3,0.6-0.5,1.3-0.7,1.9c-0.1,0.4-0.3,0.7-0.4,1.1
				c0,0.1-0.1,0.1-0.1,0.2c0,0.1,0,0.1,0,0.2c0.1,0,0.1-0.1,0.2-0.1c0.7-0.7,1.4-1.4,2.2-2.1c0.7-0.6,1.5-1.1,2.5-1.3
				c0.6-0.1,1.1-0.2,1.7-0.2c0.2,0,0.2,0.1,0.2,0.2c-0.1,0.4-0.3,0.7-0.4,1.1c-0.3,0.7-0.5,1.3-0.8,2c-0.3,0.7-0.5,1.3-0.8,2
				c-0.1,0.2-0.2,0.4-0.2,0.6c-0.1,0.3-0.2,0.4-0.5,0.4c-0.9,0-1.8,0-2.7,0.1c-1.2,0.2-2.1,0.7-2.7,1.8c-0.3,0.5-0.5,1-0.7,1.6
				c-0.2,0.5-0.4,1-0.6,1.5c-0.2,0.5-0.4,1-0.6,1.5c-0.2,0.5-0.4,1-0.6,1.5c-0.2,0.5-0.4,1-0.6,1.5c-0.3,0.7-0.5,1.3-0.8,2
				c-0.2,0.6-0.5,1.3-0.7,1.9c0,0.1-0.1,0.3-0.2,0.4c0,0.1-0.1,0.1-0.2,0.1c-1.5,0-2.9,0-4.4,0c-0.8,0-1.6,0-2.4,0
				C52.7,27.7,52.5,27.6,52.3,27.6z"/>
			<path class="st1" d="M150.3,25c0.1,1.5-1.3,2.7-2.7,2.6c-1.7,0-2.8-1.2-2.8-2.7c0-1.5,1.1-2.7,2.9-2.7
				C149,22.4,150.4,23.4,150.3,25z M149.9,25c0.1-1.2-1.1-2.3-2.3-2.3c-1.4,0-2.4,1.1-2.4,2.3c0,1.3,0.9,2.2,2.4,2.3
				C148.7,27.3,150,26.2,149.9,25z"/>
			<path class="st1" d="M148.7,26.4c-0.3,0.1-0.4,0.1-0.6-0.1c-0.1-0.2-0.3-0.4-0.4-0.6c-0.1-0.2-0.3-0.3-0.6-0.4
				c-0.2-0.1-0.3,0-0.3,0.2c0,0.2,0,0.5,0,0.7c0,0.2,0,0.2-0.2,0.2c-0.2,0-0.2-0.1-0.2-0.2c0-0.8,0-1.6,0-2.4c0-0.2,0.1-0.2,0.2-0.2
				c0.4,0,0.7,0,1.1,0c0.5,0,0.8,0.3,0.9,0.7c0.1,0.2-0.1,0.5-0.3,0.7c-0.1,0.1-0.3,0.2-0.3,0.3c0,0.1,0.2,0.2,0.2,0.3
				C148.4,25.8,148.6,26.1,148.7,26.4z M147.4,24.9c0.1,0,0.2,0,0.3,0c0.2,0,0.4-0.3,0.4-0.5c0-0.2-0.2-0.4-0.4-0.4
				c-0.2,0-0.4,0-0.7,0c-0.1,0-0.2,0.1-0.2,0.2c0,0.1,0,0.2,0,0.2C146.8,24.9,146.8,24.9,147.4,24.9z"/>
		</g>
	</g>
</g>
</svg>
